<svg width="32" height="32" viewBox="0 0 32 32" fill="none" xmlns="http://www.w3.org/2000/svg">
  <\!-- Brain icon with ADHD-friendly colors -->
  <circle cx="16" cy="16" r="15" fill="#667eea" stroke="#764ba2" stroke-width="2"/>
  
  <\!-- Simplified brain shape -->
  <path d="M8 12c0-4 3-6 8-6s8 2 8 6c0 2-1 4-2 5 1 1 2 3 2 5s-3 6-8 6-8-4-8-6c0-2 1-4 2-5-1-1-2-3-2-5z" fill="white" opacity="0.9"/>
  
  <\!-- Brain wrinkles -->
  <path d="M10 14c2-1 4-1 6 0M10 18c2 1 4 1 6 0M16 12c2 1 4 2 6 4M16 20c2-1 4-2 6-4" stroke="#667eea" stroke-width="1" fill="none"/>
</svg>
